<?xml version="1.0" standalone="no"?>
<!DOCTYPE svg PUBLIC "-//W3C//DTD SVG 20010904//EN"
 "http://www.w3.org/TR/2001/REC-SVG-20010904/DTD/svg10.dtd">
<svg version="1.0" xmlns="http://www.w3.org/2000/svg"
 width="225.000000pt" height="225.000000pt" viewBox="0 0 225.000000 225.000000"
 preserveAspectRatio="xMidYMid meet">
<metadata>
Created by potrace 1.11, written by Peter Selinger 2001-2013
</metadata>
<g transform="translate(0.000000,225.000000) scale(0.100000,-0.100000)"
fill="#000000" stroke="none">
<path d="M0 1125 l0 -1125 1125 0 1125 0 0 1125 0 1125 -1125 0 -1125 0 0
-1125z m2240 0 l0 -1095 -1115 0 -1115 0 0 1095 0 1095 1115 0 1115 0 0 -1095z"/>
<path d="M30 1890 l0 -310 1095 0 1095 0 0 310 0 310 -1095 0 -1095 0 0 -310z
m259 235 c30 -15 48 -50 53 -100 3 -28 0 -30 -33 -33 -35 -3 -37 -1 -43 32 -6
31 -11 36 -36 36 -20 0 -31 -6 -35 -21 -12 -37 5 -69 70 -139 76 -81 94 -128
73 -193 -28 -89 -139 -115 -200 -47 -22 24 -28 40 -28 75 0 44 1 45 33 45 30
0 34 -4 43 -37 8 -33 13 -38 39 -38 26 0 30 4 33 32 4 41 -19 85 -63 119 -20
15 -48 47 -62 71 -44 75 -23 177 42 204 32 13 84 10 114 -6z m1250 0 c33 -16
61 -77 61 -130 0 -34 -1 -35 -40 -35 -40 0 -40 0 -40 38 0 50 -11 64 -46 60
l-29 -3 -3 -155 c-3 -181 0 -200 31 -200 36 0 47 19 47 82 0 51 -2 58 -20 58
-16 0 -20 7 -20 35 l0 35 60 0 60 0 0 -90 c0 -112 -18 -162 -65 -184 -18 -9
-46 -16 -62 -16 -38 0 -91 34 -104 67 -6 17 -9 100 -7 209 3 165 5 184 23 204
37 41 103 52 154 25z m-929 -30 c0 -34 -1 -35 -40 -35 l-40 0 0 -215 0 -215
-40 0 -40 0 0 215 0 215 -45 0 -45 0 3 35 2 35 123 0 122 0 0 -35z m223 24
c34 -16 48 -51 48 -127 1 -49 -4 -71 -19 -91 -19 -26 -19 -26 1 -53 15 -20 21
-48 25 -122 l5 -96 -41 0 c-48 0 -52 7 -52 104 0 77 -9 96 -47 96 -22 0 -23
-2 -23 -100 l0 -100 -45 0 -45 0 0 250 0 250 85 0 c46 0 95 -5 108 -11z m281
-6 c6 -20 76 -456 76 -473 0 -5 -17 -10 -39 -10 -41 0 -51 13 -51 68 0 20 -5
22 -49 22 l-49 0 -6 -45 c-7 -44 -8 -45 -45 -45 l-38 0 12 78 c7 42 25 155 41
250 l27 172 58 0 c46 0 59 -3 63 -17z m196 -233 l0 -250 -40 0 -40 0 0 250 0
250 40 0 40 0 0 -250z m420 145 l0 -105 40 0 40 0 0 105 0 105 45 0 45 0 0
-250 0 -250 -45 0 -45 0 0 105 0 105 -40 0 -40 0 0 -105 0 -105 -45 0 -45 0 0
250 0 250 45 0 45 0 0 -105z m450 70 c0 -35 0 -35 -45 -35 l-45 0 0 -215 0
-215 -40 0 -40 0 0 215 0 215 -40 0 c-39 0 -40 1 -40 35 l0 35 125 0 125 0 0
-35z"/>
<path d="M730 1985 l0 -75 29 0 c34 0 41 14 41 79 0 52 -12 71 -47 71 -22 0
-23 -3 -23 -75z"/>
<path d="M1029 1900 l-15 -110 33 0 c26 0 33 4 33 20 0 31 -22 174 -29 187 -4
7 -13 -37 -22 -97z"/>
<path d="M230 1448 c-18 -13 -43 -36 -54 -51 -20 -27 -21 -40 -21 -287 0 -247
1 -260 21 -287 38 -51 81 -73 144 -73 47 0 64 5 97 29 64 47 68 64 68 337 l0
240 -27 41 c-14 22 -42 47 -61 56 -51 25 -127 22 -167 -5z m129 -104 c20 -25
21 -39 21 -236 0 -208 0 -209 -25 -233 -29 -30 -45 -31 -79 -4 l-26 20 0 217
c0 208 1 217 22 239 28 30 62 29 87 -3z"/>
<path d="M582 1162 l3 -299 27 -40 c67 -102 215 -99 285 6 23 33 23 39 23 332
l0 299 -55 0 -55 0 -2 -292 -3 -292 -27 -16 c-25 -13 -31 -13 -55 0 l-28 16
-3 292 -2 292 -56 0 -55 0 3 -298z"/>
<path d="M1010 1410 l0 -50 60 0 60 0 0 -305 0 -305 50 0 50 0 0 305 0 305 60
0 60 0 0 50 0 50 -170 0 -170 0 0 -50z"/>
<path d="M1420 1410 l0 -50 60 0 60 0 0 -305 0 -305 50 0 50 0 0 305 0 305 60
0 60 0 0 50 0 50 -170 0 -170 0 0 -50z"/>
<path d="M1865 1448 c-4 -15 -115 -679 -115 -690 0 -5 24 -8 53 -8 l54 0 12
85 13 85 58 0 58 0 13 -85 12 -85 54 0 c29 0 53 3 53 8 0 4 -26 163 -57 355
l-58 347 -73 0 c-49 0 -74 -4 -77 -12z m94 -260 c6 -51 14 -110 18 -130 l6
-38 -43 0 c-41 0 -42 1 -37 28 3 15 11 73 18 130 7 56 16 102 19 102 4 0 12
-42 19 -92z"/>
<path d="M30 355 l0 -305 1095 0 1095 0 0 305 0 305 -1095 0 -1095 0 0 -305z
m891 232 c24 -15 49 -77 49 -122 0 -34 -1 -35 -39 -35 -39 0 -40 0 -43 41 -3
49 -27 71 -55 53 -16 -10 -18 -31 -21 -160 -3 -163 0 -189 24 -198 33 -13 54
12 54 64 0 45 3 50 25 56 43 11 55 -1 55 -53 0 -57 -26 -113 -60 -130 -46 -23
-106 -16 -142 16 l-33 29 -3 189 c-2 173 -1 191 17 220 31 50 117 65 172 30z
m610 0 c24 -15 49 -67 49 -101 0 -24 -4 -26 -40 -26 -33 0 -40 3 -40 19 0 35
-12 51 -36 51 -30 0 -45 -33 -33 -74 5 -16 35 -57 69 -91 33 -35 64 -75 70
-90 25 -67 -3 -155 -56 -175 -38 -15 -97 -12 -122 6 -30 21 -52 66 -52 109 0
34 1 35 40 35 39 0 40 -1 40 -35 0 -56 63 -73 76 -21 9 36 -12 74 -76 137 -66
67 -86 115 -75 180 7 41 44 85 78 92 30 7 86 -2 108 -16z m589 -6 c26 -19 54
-85 46 -108 -3 -7 -20 -13 -39 -13 -28 0 -34 4 -42 32 -18 62 -82 43 -71 -20
4 -25 24 -54 70 -101 42 -45 68 -80 75 -106 13 -49 13 -51 0 -98 -13 -48 -57
-77 -117 -77 -37 0 -50 6 -78 34 -29 29 -34 41 -34 80 0 46 0 46 35 46 19 0
36 -3 36 -7 1 -5 3 -19 4 -32 6 -63 75 -58 75 5 0 30 -10 46 -59 97 -32 34
-66 76 -75 94 -21 42 -20 99 2 143 29 58 112 73 172 31z m-1780 -16 l0 -35
-70 0 -70 0 0 -70 0 -70 55 0 55 0 0 -40 0 -40 -55 0 -55 0 0 -70 0 -70 70 0
70 0 0 -40 0 -40 -110 0 -110 0 0 255 0 255 110 0 110 0 0 -35z m169 -47 c14
-42 28 -79 32 -82 3 -3 17 33 33 79 l27 85 39 0 40 0 -40 -112 c-22 -62 -40
-121 -40 -130 0 -10 18 -70 40 -134 22 -65 40 -121 40 -126 0 -5 -19 -8 -42
-6 l-41 3 -33 95 c-17 52 -34 88 -37 80 -3 -8 -17 -52 -32 -98 -26 -82 -27
-82 -61 -82 -21 0 -34 5 -34 13 0 7 18 67 40 132 l40 120 -36 110 c-20 60 -39
116 -42 123 -3 10 6 12 38 10 l43 -3 26 -77z m611 -128 c0 -197 1 -210 19
-220 25 -13 27 -13 45 6 14 13 16 47 16 220 l0 204 41 0 40 0 -3 -212 c-3
-233 -10 -262 -63 -286 -33 -15 -87 -15 -120 0 -50 23 -55 48 -55 283 l0 215
40 0 40 0 0 -210z m750 175 l0 -35 -70 0 -70 0 0 -70 0 -70 55 0 55 0 0 -40 0
-40 -55 0 -55 0 0 -70 0 -70 71 0 70 0 -3 -37 -3 -38 -107 -3 -108 -3 0 256 0
255 110 0 110 0 0 -35z"/>
</g>
</svg>
